<mxfile host="www.draw.io" modified="2019-11-29T03:07:37.658Z" agent="Mozilla/5.0 (Windows NT 6.1; Win64; x64) AppleWebKit/537.36 (KHTML, like Gecko) Chrome/73.0.3683.75 Safari/537.36" etag="nRJTDnGfuycQdHPmO2yw" version="12.3.3" type="github" pages="1">
  <diagram id="QmE9LT3bl2_Xa9Ef4wVj" name="第 1 页">
    <mxGraphModel dx="1408" dy="3114" grid="1" gridSize="10" guides="1" tooltips="1" connect="1" arrows="1" fold="1" page="1" pageScale="1" pageWidth="1327" pageHeight="1169" math="0" shadow="0">
      <root>
        <mxCell id="0"/>
        <mxCell id="1" parent="0"/>
        <mxCell id="e0Hb0du3VfullZevtZFt-270" value="" style="rounded=0;whiteSpace=wrap;html=1;dashed=1;strokeColor=#000000;fillColor=#ffffff;" parent="1" vertex="1">
          <mxGeometry x="1267" y="-1715" width="423" height="545" as="geometry"/>
        </mxCell>
        <mxCell id="e0Hb0du3VfullZevtZFt-220" value="" style="rounded=0;whiteSpace=wrap;html=1;fillColor=#ffffff;dashed=1;" parent="1" vertex="1">
          <mxGeometry x="50" y="-1804" width="1160" height="1054" as="geometry"/>
        </mxCell>
        <mxCell id="e0Hb0du3VfullZevtZFt-221" value="atlas芯片处理器" style="text;html=1;strokeColor=none;fillColor=none;align=center;verticalAlign=middle;whiteSpace=wrap;rounded=0;dashed=1;" parent="1" vertex="1">
          <mxGeometry x="1080" y="-1793.3106535362579" width="100" height="21.378692927484337" as="geometry"/>
        </mxCell>
        <mxCell id="e0Hb0du3VfullZevtZFt-226" value="&lt;span style=&quot;white-space: normal&quot;&gt;Init接口&lt;/span&gt;" style="rounded=1;whiteSpace=wrap;html=1;fillColor=#ffffff;" parent="1" vertex="1">
          <mxGeometry x="470" y="-1782.7544483985764" width="120" height="63.73665480427047" as="geometry"/>
        </mxCell>
        <mxCell id="e0Hb0du3VfullZevtZFt-56" value="根据配置的芯片数" style="rounded=0;whiteSpace=wrap;html=1;" parent="1" vertex="1">
          <mxGeometry x="470" y="-1990" width="120" height="60" as="geometry"/>
        </mxCell>
        <mxCell id="e0Hb0du3VfullZevtZFt-77" value="" style="endArrow=classic;html=1;exitX=0.5;exitY=1;exitDx=0;exitDy=0;entryX=0.5;entryY=0;entryDx=0;entryDy=0;" parent="1" source="e0Hb0du3VfullZevtZFt-56" target="e0Hb0du3VfullZevtZFt-140" edge="1">
          <mxGeometry width="50" height="50" relative="1" as="geometry">
            <mxPoint x="637" y="-1860" as="sourcePoint"/>
            <mxPoint x="687" y="-1910" as="targetPoint"/>
          </mxGeometry>
        </mxCell>
        <mxCell id="e0Hb0du3VfullZevtZFt-101" value="需要配置芯片" style="text;html=1;resizable=0;points=[];align=center;verticalAlign=middle;labelBackgroundColor=#ffffff;" parent="e0Hb0du3VfullZevtZFt-77" vertex="1" connectable="0">
          <mxGeometry x="-0.375" y="1" relative="1" as="geometry">
            <mxPoint x="-1" y="6.5" as="offset"/>
          </mxGeometry>
        </mxCell>
        <mxCell id="e0Hb0du3VfullZevtZFt-78" value="开始" style="shape=parallelogram;perimeter=parallelogramPerimeter;whiteSpace=wrap;html=1;" parent="1" vertex="1">
          <mxGeometry x="470" y="-2300" width="120" height="60" as="geometry"/>
        </mxCell>
        <mxCell id="e0Hb0du3VfullZevtZFt-79" value="加载config.json配置" style="rounded=1;whiteSpace=wrap;html=1;" parent="1" vertex="1">
          <mxGeometry x="470" y="-2095" width="120" height="60" as="geometry"/>
        </mxCell>
        <mxCell id="e0Hb0du3VfullZevtZFt-80" value="初始化日志" style="rounded=1;whiteSpace=wrap;html=1;" parent="1" vertex="1">
          <mxGeometry x="470" y="-2200" width="120" height="60" as="geometry"/>
        </mxCell>
        <mxCell id="e0Hb0du3VfullZevtZFt-82" value="" style="endArrow=classic;html=1;exitX=0.5;exitY=1;exitDx=0;exitDy=0;entryX=0.5;entryY=0;entryDx=0;entryDy=0;" parent="1" source="e0Hb0du3VfullZevtZFt-78" target="e0Hb0du3VfullZevtZFt-80" edge="1">
          <mxGeometry width="50" height="50" relative="1" as="geometry">
            <mxPoint x="610" y="-2180" as="sourcePoint"/>
            <mxPoint x="660" y="-2230" as="targetPoint"/>
          </mxGeometry>
        </mxCell>
        <mxCell id="e0Hb0du3VfullZevtZFt-83" value="" style="endArrow=classic;html=1;exitX=0.5;exitY=1;exitDx=0;exitDy=0;entryX=0.5;entryY=0;entryDx=0;entryDy=0;" parent="1" source="e0Hb0du3VfullZevtZFt-80" target="e0Hb0du3VfullZevtZFt-79" edge="1">
          <mxGeometry width="50" height="50" relative="1" as="geometry">
            <mxPoint x="680" y="-2080" as="sourcePoint"/>
            <mxPoint x="530" y="-2090" as="targetPoint"/>
          </mxGeometry>
        </mxCell>
        <mxCell id="e0Hb0du3VfullZevtZFt-84" value="" style="endArrow=classic;html=1;exitX=0.5;exitY=1;exitDx=0;exitDy=0;entryX=0.5;entryY=0;entryDx=0;entryDy=0;" parent="1" source="e0Hb0du3VfullZevtZFt-79" target="e0Hb0du3VfullZevtZFt-56" edge="1">
          <mxGeometry width="50" height="50" relative="1" as="geometry">
            <mxPoint x="600" y="-1970" as="sourcePoint"/>
            <mxPoint x="660" y="-2010" as="targetPoint"/>
          </mxGeometry>
        </mxCell>
        <mxCell id="e0Hb0du3VfullZevtZFt-102" value="" style="endArrow=classic;html=1;exitX=1;exitY=0.5;exitDx=0;exitDy=0;entryX=0;entryY=0.5;entryDx=0;entryDy=0;" parent="1" source="e0Hb0du3VfullZevtZFt-56" target="e0Hb0du3VfullZevtZFt-133" edge="1">
          <mxGeometry width="50" height="50" relative="1" as="geometry">
            <mxPoint x="660" y="-1940" as="sourcePoint"/>
            <mxPoint x="1060" y="-1960" as="targetPoint"/>
          </mxGeometry>
        </mxCell>
        <mxCell id="e0Hb0du3VfullZevtZFt-104" value="全部初始化完成" style="text;html=1;resizable=0;points=[];align=center;verticalAlign=middle;labelBackgroundColor=#ffffff;" parent="e0Hb0du3VfullZevtZFt-102" vertex="1" connectable="0">
          <mxGeometry x="-0.325" y="1" relative="1" as="geometry">
            <mxPoint x="84" y="1" as="offset"/>
          </mxGeometry>
        </mxCell>
        <mxCell id="e0Hb0du3VfullZevtZFt-140" value="atlas芯片管理器&lt;br&gt;获取芯片处理器" style="rounded=1;whiteSpace=wrap;html=1;" parent="1" vertex="1">
          <mxGeometry x="470" y="-1880" width="120" height="60" as="geometry"/>
        </mxCell>
        <mxCell id="e0Hb0du3VfullZevtZFt-142" value="芯片处理器保存到负载均衡管理器中" style="rounded=1;whiteSpace=wrap;html=1;" parent="1" vertex="1">
          <mxGeometry x="70" y="-1880" width="120" height="60" as="geometry"/>
        </mxCell>
        <mxCell id="e0Hb0du3VfullZevtZFt-143" value="" style="endArrow=classic;html=1;exitX=0.5;exitY=0;exitDx=0;exitDy=0;entryX=0;entryY=0.5;entryDx=0;entryDy=0;" parent="1" source="e0Hb0du3VfullZevtZFt-142" target="e0Hb0du3VfullZevtZFt-56" edge="1">
          <mxGeometry width="50" height="50" relative="1" as="geometry">
            <mxPoint x="110" y="-1900" as="sourcePoint"/>
            <mxPoint x="130" y="-2000" as="targetPoint"/>
            <Array as="points">
              <mxPoint x="130" y="-1960"/>
            </Array>
          </mxGeometry>
        </mxCell>
        <mxCell id="e0Hb0du3VfullZevtZFt-57" value="&lt;span style=&quot;white-space: normal&quot;&gt;fork&lt;/span&gt;" style="rounded=1;whiteSpace=wrap;html=1;" parent="1" vertex="1">
          <mxGeometry x="650" y="-1560" width="120" height="60" as="geometry"/>
        </mxCell>
        <mxCell id="e0Hb0du3VfullZevtZFt-58" value="" style="endArrow=classic;html=1;entryX=0.5;entryY=0;entryDx=0;entryDy=0;exitX=0.5;exitY=1;exitDx=0;exitDy=0;" parent="1" source="e0Hb0du3VfullZevtZFt-63" target="e0Hb0du3VfullZevtZFt-57" edge="1">
          <mxGeometry width="50" height="50" relative="1" as="geometry">
            <mxPoint x="703" y="-1625" as="sourcePoint"/>
            <mxPoint x="703" y="-1585" as="targetPoint"/>
          </mxGeometry>
        </mxCell>
        <mxCell id="e0Hb0du3VfullZevtZFt-62" value="" style="endArrow=classic;html=1;exitX=1;exitY=0.5;exitDx=0;exitDy=0;entryX=0.5;entryY=0;entryDx=0;entryDy=0;" parent="1" source="e0Hb0du3VfullZevtZFt-57" target="e0Hb0du3VfullZevtZFt-60" edge="1">
          <mxGeometry width="50" height="50" relative="1" as="geometry">
            <mxPoint x="700" y="-1280" as="sourcePoint"/>
            <mxPoint x="620" y="-1320" as="targetPoint"/>
            <Array as="points">
              <mxPoint x="842" y="-1530"/>
            </Array>
          </mxGeometry>
        </mxCell>
        <mxCell id="e0Hb0du3VfullZevtZFt-87" value="子进程" style="text;html=1;resizable=0;points=[];align=center;verticalAlign=middle;labelBackgroundColor=#ffffff;" parent="e0Hb0du3VfullZevtZFt-62" vertex="1" connectable="0">
          <mxGeometry x="0.15" y="-1" relative="1" as="geometry">
            <mxPoint x="-38" y="-4" as="offset"/>
          </mxGeometry>
        </mxCell>
        <mxCell id="e0Hb0du3VfullZevtZFt-63" value="从芯片管理器获取&lt;br&gt;监听端口" style="rounded=1;whiteSpace=wrap;html=1;" parent="1" vertex="1">
          <mxGeometry x="650" y="-1690" width="120" height="60" as="geometry"/>
        </mxCell>
        <mxCell id="e0Hb0du3VfullZevtZFt-88" value="等待子进程信号" style="rounded=1;whiteSpace=wrap;html=1;" parent="1" vertex="1">
          <mxGeometry x="460" y="-1560" width="120" height="60" as="geometry"/>
        </mxCell>
        <mxCell id="e0Hb0du3VfullZevtZFt-89" value="" style="endArrow=classic;html=1;entryX=1;entryY=0.5;entryDx=0;entryDy=0;exitX=0;exitY=0.5;exitDx=0;exitDy=0;" parent="1" source="e0Hb0du3VfullZevtZFt-57" target="e0Hb0du3VfullZevtZFt-88" edge="1">
          <mxGeometry width="50" height="50" relative="1" as="geometry">
            <mxPoint x="560" y="-1390" as="sourcePoint"/>
            <mxPoint x="590" y="-1350" as="targetPoint"/>
          </mxGeometry>
        </mxCell>
        <mxCell id="e0Hb0du3VfullZevtZFt-90" value="父进程" style="text;html=1;resizable=0;points=[];align=center;verticalAlign=middle;labelBackgroundColor=#ffffff;" parent="e0Hb0du3VfullZevtZFt-89" vertex="1" connectable="0">
          <mxGeometry x="-0.3636" y="1" relative="1" as="geometry">
            <mxPoint x="-11" y="-1" as="offset"/>
          </mxGeometry>
        </mxCell>
        <mxCell id="e0Hb0du3VfullZevtZFt-93" value="初始化&lt;br&gt;AtlasFaceProxyClient&lt;br&gt;通过端口号连接" style="rounded=1;whiteSpace=wrap;html=1;" parent="1" vertex="1">
          <mxGeometry x="300" y="-1510" width="120" height="60" as="geometry"/>
        </mxCell>
        <mxCell id="e0Hb0du3VfullZevtZFt-94" value="" style="endArrow=classic;html=1;exitX=0.5;exitY=1;exitDx=0;exitDy=0;entryX=0.5;entryY=0;entryDx=0;entryDy=0;" parent="1" source="e0Hb0du3VfullZevtZFt-93" target="e0Hb0du3VfullZevtZFt-95" edge="1">
          <mxGeometry width="50" height="50" relative="1" as="geometry">
            <mxPoint x="400" y="-1080" as="sourcePoint"/>
            <mxPoint x="400" y="-1120" as="targetPoint"/>
          </mxGeometry>
        </mxCell>
        <mxCell id="e0Hb0du3VfullZevtZFt-95" value="调用RPC&lt;br&gt;初始化指定atlas芯片" style="rounded=1;whiteSpace=wrap;html=1;" parent="1" vertex="1">
          <mxGeometry x="300" y="-1314" width="120" height="60" as="geometry"/>
        </mxCell>
        <mxCell id="e0Hb0du3VfullZevtZFt-106" value="端口号+1" style="rounded=1;whiteSpace=wrap;html=1;" parent="1" vertex="1">
          <mxGeometry x="460" y="-1460" width="120" height="60" as="geometry"/>
        </mxCell>
        <mxCell id="e0Hb0du3VfullZevtZFt-107" value="" style="endArrow=classic;html=1;entryX=0.25;entryY=0;entryDx=0;entryDy=0;exitX=0.25;exitY=1;exitDx=0;exitDy=0;" parent="1" source="e0Hb0du3VfullZevtZFt-88" target="e0Hb0du3VfullZevtZFt-106" edge="1">
          <mxGeometry width="50" height="50" relative="1" as="geometry">
            <mxPoint x="490" y="-1490" as="sourcePoint"/>
            <mxPoint x="530" y="-1510" as="targetPoint"/>
          </mxGeometry>
        </mxCell>
        <mxCell id="e0Hb0du3VfullZevtZFt-108" value="失败信号" style="text;html=1;resizable=0;points=[];align=center;verticalAlign=middle;labelBackgroundColor=#ffffff;" parent="e0Hb0du3VfullZevtZFt-107" vertex="1" connectable="0">
          <mxGeometry x="-0.34" relative="1" as="geometry">
            <mxPoint x="-6.5" y="3" as="offset"/>
          </mxGeometry>
        </mxCell>
        <mxCell id="e0Hb0du3VfullZevtZFt-110" value="" style="endArrow=classic;html=1;entryX=0.75;entryY=1;entryDx=0;entryDy=0;exitX=0.75;exitY=0;exitDx=0;exitDy=0;" parent="1" source="e0Hb0du3VfullZevtZFt-106" target="e0Hb0du3VfullZevtZFt-88" edge="1">
          <mxGeometry width="50" height="50" relative="1" as="geometry">
            <mxPoint x="550" y="-1250" as="sourcePoint"/>
            <mxPoint x="510" y="-1230" as="targetPoint"/>
          </mxGeometry>
        </mxCell>
        <mxCell id="e0Hb0du3VfullZevtZFt-111" value="" style="endArrow=classic;html=1;entryX=0.75;entryY=0;entryDx=0;entryDy=0;exitX=1;exitY=0.75;exitDx=0;exitDy=0;" parent="1" source="e0Hb0du3VfullZevtZFt-88" target="e0Hb0du3VfullZevtZFt-113" edge="1">
          <mxGeometry width="50" height="50" relative="1" as="geometry">
            <mxPoint x="610" y="-1510" as="sourcePoint"/>
            <mxPoint x="510" y="-1260" as="targetPoint"/>
            <Array as="points">
              <mxPoint x="614" y="-1515"/>
            </Array>
          </mxGeometry>
        </mxCell>
        <mxCell id="e0Hb0du3VfullZevtZFt-112" value="子进程退出信号" style="text;html=1;resizable=0;points=[];align=center;verticalAlign=middle;labelBackgroundColor=#ffffff;" parent="e0Hb0du3VfullZevtZFt-111" vertex="1" connectable="0">
          <mxGeometry x="0.3778" y="1" relative="1" as="geometry">
            <mxPoint x="-5" y="7" as="offset"/>
          </mxGeometry>
        </mxCell>
        <mxCell id="e0Hb0du3VfullZevtZFt-113" value="父进程退出" style="rounded=1;whiteSpace=wrap;html=1;" parent="1" vertex="1">
          <mxGeometry x="524" y="-1314" width="120" height="60" as="geometry"/>
        </mxCell>
        <mxCell id="e0Hb0du3VfullZevtZFt-114" value="" style="endArrow=classic;html=1;exitX=1;exitY=0.5;exitDx=0;exitDy=0;entryX=0;entryY=0.5;entryDx=0;entryDy=0;" parent="1" source="e0Hb0du3VfullZevtZFt-95" target="e0Hb0du3VfullZevtZFt-113" edge="1">
          <mxGeometry width="50" height="50" relative="1" as="geometry">
            <mxPoint x="474" y="-1174" as="sourcePoint"/>
            <mxPoint x="524" y="-1224" as="targetPoint"/>
          </mxGeometry>
        </mxCell>
        <mxCell id="e0Hb0du3VfullZevtZFt-115" value="失败" style="text;html=1;resizable=0;points=[];align=center;verticalAlign=middle;labelBackgroundColor=#ffffff;" parent="e0Hb0du3VfullZevtZFt-114" vertex="1" connectable="0">
          <mxGeometry x="0.2857" y="1" relative="1" as="geometry">
            <mxPoint x="-10" y="1" as="offset"/>
          </mxGeometry>
        </mxCell>
        <mxCell id="e0Hb0du3VfullZevtZFt-123" value="" style="endArrow=classic;html=1;exitX=0.5;exitY=0;exitDx=0;exitDy=0;entryX=1;entryY=0.5;entryDx=0;entryDy=0;" parent="1" source="e0Hb0du3VfullZevtZFt-88" target="e0Hb0du3VfullZevtZFt-126" edge="1">
          <mxGeometry width="50" height="50" relative="1" as="geometry">
            <mxPoint x="400" y="-1360" as="sourcePoint"/>
            <mxPoint x="490" y="-1660" as="targetPoint"/>
            <Array as="points">
              <mxPoint x="520" y="-1650"/>
            </Array>
          </mxGeometry>
        </mxCell>
        <mxCell id="e0Hb0du3VfullZevtZFt-124" value="成功信号" style="text;html=1;resizable=0;points=[];align=center;verticalAlign=middle;labelBackgroundColor=#ffffff;" parent="e0Hb0du3VfullZevtZFt-123" vertex="1" connectable="0">
          <mxGeometry x="-0.461" y="-1" relative="1" as="geometry">
            <mxPoint x="-1" y="-12.5" as="offset"/>
          </mxGeometry>
        </mxCell>
        <mxCell id="e0Hb0du3VfullZevtZFt-218" style="edgeStyle=orthogonalEdgeStyle;rounded=0;orthogonalLoop=1;jettySize=auto;html=1;exitX=0;exitY=0.5;exitDx=0;exitDy=0;entryX=0.25;entryY=0;entryDx=0;entryDy=0;" parent="1" source="e0Hb0du3VfullZevtZFt-126" target="e0Hb0du3VfullZevtZFt-95" edge="1">
          <mxGeometry relative="1" as="geometry">
            <Array as="points">
              <mxPoint x="260" y="-1650"/>
              <mxPoint x="260" y="-1420"/>
              <mxPoint x="330" y="-1420"/>
            </Array>
          </mxGeometry>
        </mxCell>
        <mxCell id="e0Hb0du3VfullZevtZFt-219" value="已连接" style="text;html=1;resizable=0;points=[];align=center;verticalAlign=middle;labelBackgroundColor=#ffffff;" parent="e0Hb0du3VfullZevtZFt-218" vertex="1" connectable="0">
          <mxGeometry x="-0.4524" y="2" relative="1" as="geometry">
            <mxPoint x="-2" y="-2" as="offset"/>
          </mxGeometry>
        </mxCell>
        <mxCell id="e0Hb0du3VfullZevtZFt-126" value="连接池获取&lt;br&gt;AtlasFaceProxyClient" style="rounded=1;whiteSpace=wrap;html=1;" parent="1" vertex="1">
          <mxGeometry x="300" y="-1680" width="120" height="60" as="geometry"/>
        </mxCell>
        <mxCell id="e0Hb0du3VfullZevtZFt-131" value="" style="endArrow=classic;html=1;exitX=0.5;exitY=0;exitDx=0;exitDy=0;" parent="1" source="e0Hb0du3VfullZevtZFt-246" target="e0Hb0du3VfullZevtZFt-142" edge="1">
          <mxGeometry width="50" height="50" relative="1" as="geometry">
            <mxPoint x="210" y="-1285" as="sourcePoint"/>
            <mxPoint x="130" y="-1455" as="targetPoint"/>
            <Array as="points"/>
          </mxGeometry>
        </mxCell>
        <mxCell id="e0Hb0du3VfullZevtZFt-132" value="成功" style="text;html=1;resizable=0;points=[];align=center;verticalAlign=middle;labelBackgroundColor=#ffffff;" parent="e0Hb0du3VfullZevtZFt-131" vertex="1" connectable="0">
          <mxGeometry x="-0.5615" y="-1" relative="1" as="geometry">
            <mxPoint x="-15" y="-274" as="offset"/>
          </mxGeometry>
        </mxCell>
        <mxCell id="e0Hb0du3VfullZevtZFt-91" value="" style="endArrow=classic;html=1;exitX=0.5;exitY=1;exitDx=0;exitDy=0;entryX=0.5;entryY=0;entryDx=0;entryDy=0;" parent="1" source="e0Hb0du3VfullZevtZFt-126" target="e0Hb0du3VfullZevtZFt-93" edge="1">
          <mxGeometry width="50" height="50" relative="1" as="geometry">
            <mxPoint x="400" y="-1260" as="sourcePoint"/>
            <mxPoint x="340" y="-1310" as="targetPoint"/>
          </mxGeometry>
        </mxCell>
        <mxCell id="e0Hb0du3VfullZevtZFt-217" value="未连接" style="text;html=1;resizable=0;points=[];align=center;verticalAlign=middle;labelBackgroundColor=#ffffff;" parent="e0Hb0du3VfullZevtZFt-91" vertex="1" connectable="0">
          <mxGeometry x="-0.2" y="5" relative="1" as="geometry">
            <mxPoint x="-5" y="6" as="offset"/>
          </mxGeometry>
        </mxCell>
        <mxCell id="e0Hb0du3VfullZevtZFt-141" value="" style="endArrow=classic;html=1;exitX=0.5;exitY=1;exitDx=0;exitDy=0;entryX=0.5;entryY=0;entryDx=0;entryDy=0;" parent="1" source="e0Hb0du3VfullZevtZFt-140" target="e0Hb0du3VfullZevtZFt-226" edge="1">
          <mxGeometry width="50" height="50" relative="1" as="geometry">
            <mxPoint x="530" y="-1500" as="sourcePoint"/>
            <mxPoint x="530" y="-1784" as="targetPoint"/>
          </mxGeometry>
        </mxCell>
        <mxCell id="e0Hb0du3VfullZevtZFt-151" value="" style="endArrow=classic;html=1;entryX=0.5;entryY=1;entryDx=0;entryDy=0;exitX=1;exitY=0.5;exitDx=0;exitDy=0;" parent="1" source="e0Hb0du3VfullZevtZFt-283" target="e0Hb0du3VfullZevtZFt-243" edge="1">
          <mxGeometry width="50" height="50" relative="1" as="geometry">
            <mxPoint x="993" y="-730" as="sourcePoint"/>
            <mxPoint x="1360" y="-860" as="targetPoint"/>
            <Array as="points">
              <mxPoint x="1130" y="-820"/>
            </Array>
          </mxGeometry>
        </mxCell>
        <mxCell id="e0Hb0du3VfullZevtZFt-153" value="" style="endArrow=classic;html=1;exitX=0;exitY=0.5;exitDx=0;exitDy=0;entryX=1;entryY=0.5;entryDx=0;entryDy=0;" parent="1" source="e0Hb0du3VfullZevtZFt-152" target="e0Hb0du3VfullZevtZFt-144" edge="1">
          <mxGeometry width="50" height="50" relative="1" as="geometry">
            <mxPoint x="1070" y="-1250" as="sourcePoint"/>
            <mxPoint x="1120" y="-1300" as="targetPoint"/>
            <Array as="points">
              <mxPoint x="1210" y="-1215"/>
            </Array>
          </mxGeometry>
        </mxCell>
        <mxCell id="e0Hb0du3VfullZevtZFt-195" style="edgeStyle=orthogonalEdgeStyle;rounded=0;orthogonalLoop=1;jettySize=auto;html=1;exitX=0;exitY=0.5;exitDx=0;exitDy=0;entryX=0.5;entryY=1;entryDx=0;entryDy=0;" parent="1" source="e0Hb0du3VfullZevtZFt-192" target="e0Hb0du3VfullZevtZFt-95" edge="1">
          <mxGeometry relative="1" as="geometry"/>
        </mxCell>
        <mxCell id="e0Hb0du3VfullZevtZFt-205" value="" style="endArrow=classic;html=1;exitX=1;exitY=0.5;exitDx=0;exitDy=0;entryX=0.5;entryY=0;entryDx=0;entryDy=0;" parent="1" source="e0Hb0du3VfullZevtZFt-226" target="e0Hb0du3VfullZevtZFt-63" edge="1">
          <mxGeometry width="50" height="50" relative="1" as="geometry">
            <mxPoint x="590" y="-1754" as="sourcePoint"/>
            <mxPoint x="580" y="-1650" as="targetPoint"/>
            <Array as="points">
              <mxPoint x="710" y="-1754"/>
            </Array>
          </mxGeometry>
        </mxCell>
        <mxCell id="e0Hb0du3VfullZevtZFt-206" value="指定的芯片&lt;br&gt;未初始化" style="text;html=1;resizable=0;points=[];align=center;verticalAlign=middle;labelBackgroundColor=#ffffff;" parent="e0Hb0du3VfullZevtZFt-205" vertex="1" connectable="0">
          <mxGeometry x="-0.7829" y="1" relative="1" as="geometry">
            <mxPoint x="40" y="1" as="offset"/>
          </mxGeometry>
        </mxCell>
        <mxCell id="e0Hb0du3VfullZevtZFt-211" value="" style="endArrow=classic;html=1;entryX=0.5;entryY=0;entryDx=0;entryDy=0;exitX=0;exitY=0.5;exitDx=0;exitDy=0;" parent="1" source="e0Hb0du3VfullZevtZFt-226" target="e0Hb0du3VfullZevtZFt-126" edge="1">
          <mxGeometry width="50" height="50" relative="1" as="geometry">
            <mxPoint x="470" y="-1754" as="sourcePoint"/>
            <mxPoint x="390" y="-1680" as="targetPoint"/>
            <Array as="points">
              <mxPoint x="360" y="-1754"/>
            </Array>
          </mxGeometry>
        </mxCell>
        <mxCell id="e0Hb0du3VfullZevtZFt-213" value="指定的芯片&lt;br&gt;已经初始化" style="text;html=1;resizable=0;points=[];align=center;verticalAlign=middle;labelBackgroundColor=#ffffff;" parent="1" vertex="1" connectable="0">
          <mxGeometry x="384.07656685927736" y="-1767.185923997148" as="geometry">
            <mxPoint x="38.5" y="10.5" as="offset"/>
          </mxGeometry>
        </mxCell>
        <mxCell id="e0Hb0du3VfullZevtZFt-216" value="" style="group" parent="1" vertex="1" connectable="0">
          <mxGeometry x="2190" y="-1800" width="320" height="575" as="geometry"/>
        </mxCell>
        <mxCell id="e0Hb0du3VfullZevtZFt-53" value="" style="group" parent="e0Hb0du3VfullZevtZFt-216" vertex="1" connectable="0">
          <mxGeometry y="165" width="320" height="410" as="geometry"/>
        </mxCell>
        <mxCell id="e0Hb0du3VfullZevtZFt-51" value="" style="rounded=0;whiteSpace=wrap;html=1;dashed=1;" parent="e0Hb0du3VfullZevtZFt-53" vertex="1">
          <mxGeometry y="-20" width="320" height="400" as="geometry"/>
        </mxCell>
        <mxCell id="e0Hb0du3VfullZevtZFt-26" value="选择请求数少的" style="rounded=1;whiteSpace=wrap;html=1;" parent="e0Hb0du3VfullZevtZFt-53" vertex="1">
          <mxGeometry x="100" y="267" width="120" height="60" as="geometry"/>
        </mxCell>
        <mxCell id="e0Hb0du3VfullZevtZFt-27" value="" style="endArrow=classic;html=1;entryX=0.5;entryY=0;entryDx=0;entryDy=0;exitX=0.5;exitY=1;exitDx=0;exitDy=0;" parent="e0Hb0du3VfullZevtZFt-53" source="e0Hb0du3VfullZevtZFt-34" target="e0Hb0du3VfullZevtZFt-26" edge="1">
          <mxGeometry width="50" height="50" relative="1" as="geometry">
            <mxPoint x="90" y="224.5" as="sourcePoint"/>
            <mxPoint x="90" y="244.5" as="targetPoint"/>
          </mxGeometry>
        </mxCell>
        <mxCell id="e0Hb0du3VfullZevtZFt-34" value="选择处理器列表未超时的处理器" style="rounded=1;whiteSpace=wrap;html=1;" parent="e0Hb0du3VfullZevtZFt-53" vertex="1">
          <mxGeometry x="20" y="151" width="120" height="60" as="geometry"/>
        </mxCell>
        <mxCell id="e0Hb0du3VfullZevtZFt-35" value="" style="endArrow=classic;html=1;entryX=0.5;entryY=0;entryDx=0;entryDy=0;exitX=0.5;exitY=1;exitDx=0;exitDy=0;" parent="e0Hb0du3VfullZevtZFt-53" source="e0Hb0du3VfullZevtZFt-42" target="e0Hb0du3VfullZevtZFt-34" edge="1">
          <mxGeometry width="50" height="50" relative="1" as="geometry">
            <mxPoint x="160" y="95" as="sourcePoint"/>
            <mxPoint x="160" y="77" as="targetPoint"/>
          </mxGeometry>
        </mxCell>
        <mxCell id="e0Hb0du3VfullZevtZFt-37" value="否" style="text;html=1;resizable=0;points=[];align=center;verticalAlign=middle;labelBackgroundColor=#ffffff;" parent="e0Hb0du3VfullZevtZFt-35" vertex="1" connectable="0">
          <mxGeometry x="0.4884" y="4" relative="1" as="geometry">
            <mxPoint x="-4" y="-15.5" as="offset"/>
          </mxGeometry>
        </mxCell>
        <mxCell id="e0Hb0du3VfullZevtZFt-40" value="&lt;span style=&quot;white-space: normal&quot;&gt;选择处理器列表所有处理器&lt;/span&gt;" style="rounded=1;whiteSpace=wrap;html=1;" parent="e0Hb0du3VfullZevtZFt-53" vertex="1">
          <mxGeometry x="180" y="151" width="120" height="60" as="geometry"/>
        </mxCell>
        <mxCell id="e0Hb0du3VfullZevtZFt-41" value="" style="endArrow=classic;html=1;exitX=0.5;exitY=1;exitDx=0;exitDy=0;entryX=0.5;entryY=0;entryDx=0;entryDy=0;" parent="e0Hb0du3VfullZevtZFt-53" source="e0Hb0du3VfullZevtZFt-40" target="e0Hb0du3VfullZevtZFt-26" edge="1">
          <mxGeometry width="50" height="50" relative="1" as="geometry">
            <mxPoint x="240" y="297" as="sourcePoint"/>
            <mxPoint x="230" y="247" as="targetPoint"/>
          </mxGeometry>
        </mxCell>
        <mxCell id="e0Hb0du3VfullZevtZFt-42" value="&lt;span style=&quot;white-space: normal&quot;&gt;全部超时&lt;/span&gt;" style="rounded=1;whiteSpace=wrap;html=1;" parent="e0Hb0du3VfullZevtZFt-53" vertex="1">
          <mxGeometry x="100" y="26" width="120" height="60" as="geometry"/>
        </mxCell>
        <mxCell id="e0Hb0du3VfullZevtZFt-38" value="" style="endArrow=classic;html=1;exitX=0.5;exitY=1;exitDx=0;exitDy=0;entryX=0.5;entryY=0;entryDx=0;entryDy=0;" parent="e0Hb0du3VfullZevtZFt-53" source="e0Hb0du3VfullZevtZFt-42" target="e0Hb0du3VfullZevtZFt-40" edge="1">
          <mxGeometry width="50" height="50" relative="1" as="geometry">
            <mxPoint x="160" y="95" as="sourcePoint"/>
            <mxPoint x="230" y="137" as="targetPoint"/>
          </mxGeometry>
        </mxCell>
        <mxCell id="e0Hb0du3VfullZevtZFt-39" value="是" style="text;html=1;resizable=0;points=[];align=center;verticalAlign=middle;labelBackgroundColor=#ffffff;" parent="e0Hb0du3VfullZevtZFt-38" vertex="1" connectable="0">
          <mxGeometry x="0.37" y="3" relative="1" as="geometry">
            <mxPoint x="-3.5" y="-6" as="offset"/>
          </mxGeometry>
        </mxCell>
        <mxCell id="e0Hb0du3VfullZevtZFt-43" value="" style="endArrow=classic;html=1;exitX=0.5;exitY=1;exitDx=0;exitDy=0;" parent="e0Hb0du3VfullZevtZFt-53" source="e0Hb0du3VfullZevtZFt-26" edge="1">
          <mxGeometry width="50" height="50" relative="1" as="geometry">
            <mxPoint x="160" y="407" as="sourcePoint"/>
            <mxPoint x="160" y="410" as="targetPoint"/>
          </mxGeometry>
        </mxCell>
        <mxCell id="e0Hb0du3VfullZevtZFt-44" value="返回处理器" style="text;html=1;resizable=0;points=[];align=center;verticalAlign=middle;labelBackgroundColor=#ffffff;" parent="e0Hb0du3VfullZevtZFt-43" vertex="1" connectable="0">
          <mxGeometry x="-0.4" y="-1" relative="1" as="geometry">
            <mxPoint x="1" y="9" as="offset"/>
          </mxGeometry>
        </mxCell>
        <mxCell id="e0Hb0du3VfullZevtZFt-54" value="" style="group" parent="e0Hb0du3VfullZevtZFt-216" vertex="1" connectable="0">
          <mxGeometry x="30" width="260" height="120" as="geometry"/>
        </mxCell>
        <mxCell id="e0Hb0du3VfullZevtZFt-16" value="对成功的请求计数" style="rounded=1;whiteSpace=wrap;html=1;" parent="e0Hb0du3VfullZevtZFt-54" vertex="1">
          <mxGeometry y="60" width="120" height="60" as="geometry"/>
        </mxCell>
        <mxCell id="e0Hb0du3VfullZevtZFt-21" value="" style="endArrow=classic;html=1;entryX=0.5;entryY=0;entryDx=0;entryDy=0;" parent="e0Hb0du3VfullZevtZFt-54" target="e0Hb0du3VfullZevtZFt-16" edge="1">
          <mxGeometry width="50" height="50" relative="1" as="geometry">
            <mxPoint x="60" as="sourcePoint"/>
            <mxPoint x="50" y="-90" as="targetPoint"/>
          </mxGeometry>
        </mxCell>
        <mxCell id="e0Hb0du3VfullZevtZFt-22" value="正常返回" style="text;html=1;resizable=0;points=[];align=center;verticalAlign=middle;labelBackgroundColor=#ffffff;" parent="e0Hb0du3VfullZevtZFt-21" vertex="1" connectable="0">
          <mxGeometry x="0.38" relative="1" as="geometry">
            <mxPoint y="-11" as="offset"/>
          </mxGeometry>
        </mxCell>
        <mxCell id="e0Hb0du3VfullZevtZFt-23" value="" style="endArrow=classic;html=1;" parent="e0Hb0du3VfullZevtZFt-54" edge="1">
          <mxGeometry width="50" height="50" relative="1" as="geometry">
            <mxPoint x="199.5" as="sourcePoint"/>
            <mxPoint x="199.5" y="60" as="targetPoint"/>
          </mxGeometry>
        </mxCell>
        <mxCell id="e0Hb0du3VfullZevtZFt-24" value="超时异常" style="text;html=1;resizable=0;points=[];align=center;verticalAlign=middle;labelBackgroundColor=#ffffff;" parent="e0Hb0du3VfullZevtZFt-23" vertex="1" connectable="0">
          <mxGeometry x="-0.3333" relative="1" as="geometry">
            <mxPoint y="10" as="offset"/>
          </mxGeometry>
        </mxCell>
        <mxCell id="e0Hb0du3VfullZevtZFt-25" value="对超时的请求计数" style="rounded=1;whiteSpace=wrap;html=1;" parent="e0Hb0du3VfullZevtZFt-54" vertex="1">
          <mxGeometry x="140" y="60" width="120" height="60" as="geometry"/>
        </mxCell>
        <mxCell id="e0Hb0du3VfullZevtZFt-60" value="&lt;span style=&quot;white-space: normal&quot;&gt;初始化&lt;/span&gt;&lt;br style=&quot;white-space: normal&quot;&gt;&lt;span style=&quot;white-space: normal&quot;&gt;AtlasFaceProxyServer&lt;/span&gt;" style="rounded=1;whiteSpace=wrap;html=1;" parent="1" vertex="1">
          <mxGeometry x="782" y="-1470" width="120" height="60" as="geometry"/>
        </mxCell>
        <mxCell id="e0Hb0du3VfullZevtZFt-66" value="开始监听端口" style="rounded=1;whiteSpace=wrap;html=1;" parent="1" vertex="1">
          <mxGeometry x="782" y="-1370" width="120" height="60" as="geometry"/>
        </mxCell>
        <mxCell id="e0Hb0du3VfullZevtZFt-67" value="" style="endArrow=classic;html=1;exitX=0.5;exitY=1;exitDx=0;exitDy=0;entryX=0.5;entryY=0;entryDx=0;entryDy=0;" parent="1" source="e0Hb0du3VfullZevtZFt-60" target="e0Hb0du3VfullZevtZFt-66" edge="1">
          <mxGeometry width="50" height="50" relative="1" as="geometry">
            <mxPoint x="959" y="-1360" as="sourcePoint"/>
            <mxPoint x="1009" y="-1410" as="targetPoint"/>
          </mxGeometry>
        </mxCell>
        <mxCell id="e0Hb0du3VfullZevtZFt-68" value="发送成功信号" style="rounded=1;whiteSpace=wrap;html=1;" parent="1" vertex="1">
          <mxGeometry x="873" y="-1275" width="120" height="60" as="geometry"/>
        </mxCell>
        <mxCell id="e0Hb0du3VfullZevtZFt-69" value="发送失败信号&lt;br&gt;" style="rounded=1;whiteSpace=wrap;html=1;" parent="1" vertex="1">
          <mxGeometry x="703" y="-1275" width="120" height="60" as="geometry"/>
        </mxCell>
        <mxCell id="e0Hb0du3VfullZevtZFt-72" value="" style="endArrow=classic;html=1;exitX=0.25;exitY=1;exitDx=0;exitDy=0;entryX=0.5;entryY=0;entryDx=0;entryDy=0;" parent="1" source="e0Hb0du3VfullZevtZFt-66" target="e0Hb0du3VfullZevtZFt-69" edge="1">
          <mxGeometry width="50" height="50" relative="1" as="geometry">
            <mxPoint x="939" y="-1280" as="sourcePoint"/>
            <mxPoint x="989" y="-1330" as="targetPoint"/>
          </mxGeometry>
        </mxCell>
        <mxCell id="e0Hb0du3VfullZevtZFt-116" value="被占用" style="text;html=1;resizable=0;points=[];align=center;verticalAlign=middle;labelBackgroundColor=#ffffff;" parent="e0Hb0du3VfullZevtZFt-72" vertex="1" connectable="0">
          <mxGeometry x="-0.44" y="1" relative="1" as="geometry">
            <mxPoint x="6" y="12" as="offset"/>
          </mxGeometry>
        </mxCell>
        <mxCell id="e0Hb0du3VfullZevtZFt-117" value="" style="endArrow=classic;html=1;exitX=0.5;exitY=1;exitDx=0;exitDy=0;entryX=0.5;entryY=0;entryDx=0;entryDy=0;" parent="1" source="e0Hb0du3VfullZevtZFt-69" target="e0Hb0du3VfullZevtZFt-118" edge="1">
          <mxGeometry width="50" height="50" relative="1" as="geometry">
            <mxPoint x="879" y="-1120" as="sourcePoint"/>
            <mxPoint x="909" y="-1160" as="targetPoint"/>
          </mxGeometry>
        </mxCell>
        <mxCell id="e0Hb0du3VfullZevtZFt-118" value="端口号+1" style="rounded=1;whiteSpace=wrap;html=1;" parent="1" vertex="1">
          <mxGeometry x="703" y="-1175" width="120" height="60" as="geometry"/>
        </mxCell>
        <mxCell id="e0Hb0du3VfullZevtZFt-121" value="" style="endArrow=classic;html=1;exitX=0;exitY=0.5;exitDx=0;exitDy=0;" parent="1" source="e0Hb0du3VfullZevtZFt-118" edge="1">
          <mxGeometry width="50" height="50" relative="1" as="geometry">
            <mxPoint x="1029" y="-1100" as="sourcePoint"/>
            <mxPoint x="783" y="-1340" as="targetPoint"/>
            <Array as="points">
              <mxPoint x="663" y="-1145"/>
              <mxPoint x="663" y="-1340"/>
            </Array>
          </mxGeometry>
        </mxCell>
        <mxCell id="e0Hb0du3VfullZevtZFt-138" value="" style="endArrow=classic;html=1;exitX=0.5;exitY=1;exitDx=0;exitDy=0;entryX=0.5;entryY=0;entryDx=0;entryDy=0;" parent="1" source="e0Hb0du3VfullZevtZFt-68" target="e0Hb0du3VfullZevtZFt-139" edge="1">
          <mxGeometry width="50" height="50" relative="1" as="geometry">
            <mxPoint x="803" y="-925" as="sourcePoint"/>
            <mxPoint x="782" y="-1155" as="targetPoint"/>
          </mxGeometry>
        </mxCell>
        <mxCell id="e0Hb0du3VfullZevtZFt-139" value="等待ProxyClient请求" style="rounded=1;whiteSpace=wrap;html=1;" parent="1" vertex="1">
          <mxGeometry x="873" y="-1175" width="120" height="60" as="geometry"/>
        </mxCell>
        <mxCell id="e0Hb0du3VfullZevtZFt-70" value="" style="endArrow=classic;html=1;exitX=0.75;exitY=1;exitDx=0;exitDy=0;entryX=0.5;entryY=0;entryDx=0;entryDy=0;" parent="1" source="e0Hb0du3VfullZevtZFt-66" target="e0Hb0du3VfullZevtZFt-68" edge="1">
          <mxGeometry width="50" height="50" relative="1" as="geometry">
            <mxPoint x="699" y="-1120" as="sourcePoint"/>
            <mxPoint x="749" y="-1170" as="targetPoint"/>
          </mxGeometry>
        </mxCell>
        <mxCell id="e0Hb0du3VfullZevtZFt-71" value="成功" style="text;html=1;resizable=0;points=[];align=center;verticalAlign=middle;labelBackgroundColor=#ffffff;" parent="e0Hb0du3VfullZevtZFt-70" vertex="1" connectable="0">
          <mxGeometry x="-0.461" y="-1" relative="1" as="geometry">
            <mxPoint x="-4" y="12" as="offset"/>
          </mxGeometry>
        </mxCell>
        <mxCell id="e0Hb0du3VfullZevtZFt-165" value="调用altas初始接口" style="rounded=1;whiteSpace=wrap;html=1;fillColor=none;" parent="1" vertex="1">
          <mxGeometry x="803" y="-1075" width="120" height="60" as="geometry"/>
        </mxCell>
        <mxCell id="e0Hb0du3VfullZevtZFt-166" value="" style="endArrow=classic;html=1;exitX=0.25;exitY=1;exitDx=0;exitDy=0;entryX=0.5;entryY=0;entryDx=0;entryDy=0;" parent="1" source="e0Hb0du3VfullZevtZFt-139" target="e0Hb0du3VfullZevtZFt-165" edge="1">
          <mxGeometry width="50" height="50" relative="1" as="geometry">
            <mxPoint x="843" y="-1155" as="sourcePoint"/>
            <mxPoint x="893" y="-1205" as="targetPoint"/>
          </mxGeometry>
        </mxCell>
        <mxCell id="e0Hb0du3VfullZevtZFt-170" value="初始化" style="text;html=1;resizable=0;points=[];align=center;verticalAlign=middle;labelBackgroundColor=#ffffff;" parent="e0Hb0du3VfullZevtZFt-166" vertex="1" connectable="0">
          <mxGeometry x="-0.55" y="4" relative="1" as="geometry">
            <mxPoint x="-13.5" y="8" as="offset"/>
          </mxGeometry>
        </mxCell>
        <mxCell id="e0Hb0du3VfullZevtZFt-4" value="" style="endArrow=classic;html=1;exitX=0.75;exitY=1;exitDx=0;exitDy=0;entryX=0.5;entryY=0;entryDx=0;entryDy=0;" parent="1" source="e0Hb0du3VfullZevtZFt-139" target="e0Hb0du3VfullZevtZFt-3" edge="1">
          <mxGeometry width="50" height="50" relative="1" as="geometry">
            <mxPoint x="933" y="-995" as="sourcePoint"/>
            <mxPoint x="933" y="-1075" as="targetPoint"/>
          </mxGeometry>
        </mxCell>
        <mxCell id="e0Hb0du3VfullZevtZFt-173" value="处理请求" style="text;html=1;resizable=0;points=[];align=center;verticalAlign=middle;labelBackgroundColor=#ffffff;" parent="e0Hb0du3VfullZevtZFt-4" vertex="1" connectable="0">
          <mxGeometry x="-0.55" y="-1" relative="1" as="geometry">
            <mxPoint x="11.5" y="10" as="offset"/>
          </mxGeometry>
        </mxCell>
        <mxCell id="e0Hb0du3VfullZevtZFt-192" value="将结果返回" style="rounded=1;whiteSpace=wrap;html=1;fillColor=none;" parent="1" vertex="1">
          <mxGeometry x="803" y="-975" width="120" height="60" as="geometry"/>
        </mxCell>
        <mxCell id="e0Hb0du3VfullZevtZFt-193" value="" style="endArrow=classic;html=1;exitX=0.5;exitY=1;exitDx=0;exitDy=0;entryX=0.5;entryY=0;entryDx=0;entryDy=0;" parent="1" source="e0Hb0du3VfullZevtZFt-165" target="e0Hb0du3VfullZevtZFt-192" edge="1">
          <mxGeometry width="50" height="50" relative="1" as="geometry">
            <mxPoint x="753" y="-565" as="sourcePoint"/>
            <mxPoint x="803" y="-615" as="targetPoint"/>
          </mxGeometry>
        </mxCell>
        <mxCell id="e0Hb0du3VfullZevtZFt-144" value="处理器的连接池中&lt;br&gt;获取Client" style="rounded=1;whiteSpace=wrap;html=1;" parent="1" vertex="1">
          <mxGeometry x="1040" y="-1245" width="120" height="60" as="geometry"/>
        </mxCell>
        <mxCell id="e0Hb0du3VfullZevtZFt-146" value="" style="endArrow=classic;html=1;entryX=1;entryY=0.5;entryDx=0;entryDy=0;exitX=0;exitY=0.5;exitDx=0;exitDy=0;" parent="1" source="e0Hb0du3VfullZevtZFt-144" target="e0Hb0du3VfullZevtZFt-139" edge="1">
          <mxGeometry width="50" height="50" relative="1" as="geometry">
            <mxPoint x="1070" y="-1085" as="sourcePoint"/>
            <mxPoint x="1080" y="-1035" as="targetPoint"/>
            <Array as="points">
              <mxPoint x="1010" y="-1215"/>
              <mxPoint x="1010" y="-1145"/>
            </Array>
          </mxGeometry>
        </mxCell>
        <mxCell id="e0Hb0du3VfullZevtZFt-147" value="发送请求" style="text;html=1;resizable=0;points=[];align=center;verticalAlign=middle;labelBackgroundColor=#ffffff;" parent="e0Hb0du3VfullZevtZFt-146" vertex="1" connectable="0">
          <mxGeometry x="-0.3333" relative="1" as="geometry">
            <mxPoint y="16" as="offset"/>
          </mxGeometry>
        </mxCell>
        <mxCell id="e0Hb0du3VfullZevtZFt-224" value="" style="endArrow=classic;html=1;exitX=0.75;exitY=1;exitDx=0;exitDy=0;entryX=0;entryY=0.5;entryDx=0;entryDy=0;" parent="1" source="e0Hb0du3VfullZevtZFt-95" target="e0Hb0du3VfullZevtZFt-139" edge="1">
          <mxGeometry width="50" height="50" relative="1" as="geometry">
            <mxPoint x="500" y="-1110" as="sourcePoint"/>
            <mxPoint x="550" y="-1160" as="targetPoint"/>
            <Array as="points">
              <mxPoint x="390" y="-1050"/>
              <mxPoint x="740" y="-1050"/>
              <mxPoint x="740" y="-1100"/>
              <mxPoint x="840" y="-1100"/>
              <mxPoint x="840" y="-1145"/>
            </Array>
          </mxGeometry>
        </mxCell>
        <mxCell id="e0Hb0du3VfullZevtZFt-225" value="发送请求" style="text;html=1;resizable=0;points=[];align=center;verticalAlign=middle;labelBackgroundColor=#ffffff;" parent="e0Hb0du3VfullZevtZFt-224" vertex="1" connectable="0">
          <mxGeometry x="-0.8414" relative="1" as="geometry">
            <mxPoint y="47" as="offset"/>
          </mxGeometry>
        </mxCell>
        <mxCell id="e0Hb0du3VfullZevtZFt-133" value="初始化服务&lt;br&gt;等待连接" style="rounded=1;whiteSpace=wrap;html=1;" parent="1" vertex="1">
          <mxGeometry x="1310" y="-1990" width="120" height="60" as="geometry"/>
        </mxCell>
        <mxCell id="e0Hb0du3VfullZevtZFt-134" value="" style="endArrow=classic;html=1;exitX=0.5;exitY=1;exitDx=0;exitDy=0;entryX=0.5;entryY=0;entryDx=0;entryDy=0;" parent="1" source="e0Hb0du3VfullZevtZFt-133" target="oY_ch-bbe2DbD_rM6Vxi-3" edge="1">
          <mxGeometry width="50" height="50" relative="1" as="geometry">
            <mxPoint x="1450" y="-1850" as="sourcePoint"/>
            <mxPoint x="1500" y="-1900" as="targetPoint"/>
          </mxGeometry>
        </mxCell>
        <mxCell id="oY_ch-bbe2DbD_rM6Vxi-1" value="封装请求数据&lt;br&gt;放入队列" style="rounded=1;whiteSpace=wrap;html=1;" parent="1" vertex="1">
          <mxGeometry x="1310" y="-1790" width="120" height="60" as="geometry"/>
        </mxCell>
        <mxCell id="oY_ch-bbe2DbD_rM6Vxi-3" value="接受请求" style="shape=parallelogram;perimeter=parallelogramPerimeter;whiteSpace=wrap;html=1;" parent="1" vertex="1">
          <mxGeometry x="1310" y="-1890" width="120" height="60" as="geometry"/>
        </mxCell>
        <mxCell id="oY_ch-bbe2DbD_rM6Vxi-5" value="队列" style="rounded=1;whiteSpace=wrap;html=1;" parent="1" vertex="1">
          <mxGeometry x="1310" y="-1592" width="120" height="60" as="geometry"/>
        </mxCell>
        <mxCell id="oY_ch-bbe2DbD_rM6Vxi-9" value="" style="endArrow=classic;html=1;exitX=0.5;exitY=1;exitDx=0;exitDy=0;entryX=0.5;entryY=0;entryDx=0;entryDy=0;" parent="1" source="oY_ch-bbe2DbD_rM6Vxi-3" target="oY_ch-bbe2DbD_rM6Vxi-1" edge="1">
          <mxGeometry width="50" height="50" relative="1" as="geometry">
            <mxPoint x="1500" y="-1780" as="sourcePoint"/>
            <mxPoint x="1550" y="-1830" as="targetPoint"/>
          </mxGeometry>
        </mxCell>
        <mxCell id="oY_ch-bbe2DbD_rM6Vxi-10" value="" style="endArrow=classic;html=1;exitX=0.5;exitY=1;exitDx=0;exitDy=0;entryX=0.5;entryY=0;entryDx=0;entryDy=0;" parent="1" source="oY_ch-bbe2DbD_rM6Vxi-5" target="oY_ch-bbe2DbD_rM6Vxi-12" edge="1">
          <mxGeometry width="50" height="50" relative="1" as="geometry">
            <mxPoint x="1360" y="-1482" as="sourcePoint"/>
            <mxPoint x="1280" y="-1490" as="targetPoint"/>
          </mxGeometry>
        </mxCell>
        <mxCell id="oY_ch-bbe2DbD_rM6Vxi-12" value="从负载均衡管理器中获取合适的处理器" style="rounded=1;whiteSpace=wrap;html=1;" parent="1" vertex="1">
          <mxGeometry x="1310" y="-1480" width="120" height="60" as="geometry"/>
        </mxCell>
        <mxCell id="oY_ch-bbe2DbD_rM6Vxi-14" value="" style="endArrow=classic;html=1;exitX=1;exitY=0.5;exitDx=0;exitDy=0;entryX=0;entryY=0.5;entryDx=0;entryDy=0;" parent="1" source="oY_ch-bbe2DbD_rM6Vxi-12" target="e0Hb0du3VfullZevtZFt-229" edge="1">
          <mxGeometry width="50" height="50" relative="1" as="geometry">
            <mxPoint x="1570" y="-1358" as="sourcePoint"/>
            <mxPoint x="1550" y="-1450" as="targetPoint"/>
          </mxGeometry>
        </mxCell>
        <mxCell id="e0Hb0du3VfullZevtZFt-231" value="无合适处理器" style="text;html=1;resizable=0;points=[];align=center;verticalAlign=middle;labelBackgroundColor=#ffffff;" parent="oY_ch-bbe2DbD_rM6Vxi-14" vertex="1" connectable="0">
          <mxGeometry x="0.4308" y="-1" relative="1" as="geometry">
            <mxPoint x="-26" y="-1" as="offset"/>
          </mxGeometry>
        </mxCell>
        <mxCell id="aE2p1h7sIhhoh9OwQIMp-2" value="有数据" style="text;html=1;strokeColor=none;fillColor=none;align=center;verticalAlign=middle;whiteSpace=wrap;rounded=0;" parent="1" vertex="1">
          <mxGeometry x="1370" y="-1520" width="40" height="20" as="geometry"/>
        </mxCell>
        <mxCell id="aE2p1h7sIhhoh9OwQIMp-3" value="" style="endArrow=classic;html=1;entryX=1;entryY=0.5;entryDx=0;entryDy=0;exitX=1;exitY=0.5;exitDx=0;exitDy=0;" parent="1" source="oY_ch-bbe2DbD_rM6Vxi-5" target="aE2p1h7sIhhoh9OwQIMp-5" edge="1">
          <mxGeometry width="50" height="50" relative="1" as="geometry">
            <mxPoint x="1550" y="-1470" as="sourcePoint"/>
            <mxPoint x="2080" y="-450" as="targetPoint"/>
            <Array as="points">
              <mxPoint x="1500" y="-1562"/>
              <mxPoint x="1500" y="-1661"/>
            </Array>
          </mxGeometry>
        </mxCell>
        <mxCell id="aE2p1h7sIhhoh9OwQIMp-4" value="无数据" style="text;html=1;strokeColor=none;fillColor=none;align=center;verticalAlign=middle;whiteSpace=wrap;rounded=0;" parent="1" vertex="1">
          <mxGeometry x="1460" y="-1625" width="40" height="20" as="geometry"/>
        </mxCell>
        <mxCell id="aE2p1h7sIhhoh9OwQIMp-5" value="异步定时器" style="rounded=1;whiteSpace=wrap;html=1;" parent="1" vertex="1">
          <mxGeometry x="1310" y="-1691" width="120" height="60" as="geometry"/>
        </mxCell>
        <mxCell id="aE2p1h7sIhhoh9OwQIMp-7" value="" style="endArrow=classic;html=1;exitX=0.5;exitY=1;exitDx=0;exitDy=0;entryX=0.5;entryY=0;entryDx=0;entryDy=0;" parent="1" source="aE2p1h7sIhhoh9OwQIMp-5" target="oY_ch-bbe2DbD_rM6Vxi-5" edge="1">
          <mxGeometry width="50" height="50" relative="1" as="geometry">
            <mxPoint x="1310" y="-1240" as="sourcePoint"/>
            <mxPoint x="1370" y="-1590" as="targetPoint"/>
          </mxGeometry>
        </mxCell>
        <mxCell id="aE2p1h7sIhhoh9OwQIMp-8" value="" style="endArrow=classic;html=1;exitX=0.5;exitY=1;exitDx=0;exitDy=0;dashed=1;" parent="1" source="oY_ch-bbe2DbD_rM6Vxi-1" edge="1">
          <mxGeometry width="50" height="50" relative="1" as="geometry">
            <mxPoint x="1310" y="-1240" as="sourcePoint"/>
            <mxPoint x="1370" y="-1690" as="targetPoint"/>
          </mxGeometry>
        </mxCell>
        <mxCell id="e0Hb0du3VfullZevtZFt-150" value="更新处理器状态&lt;br&gt;-&lt;br&gt;调用请求中的回调函&lt;br&gt;数" style="rounded=1;whiteSpace=wrap;html=1;fillColor=none;" parent="1" vertex="1">
          <mxGeometry x="1310" y="-1150" width="120" height="60" as="geometry"/>
        </mxCell>
        <mxCell id="e0Hb0du3VfullZevtZFt-152" value="更新处理器状态&lt;br&gt;-&lt;br&gt;调用处理器接口&lt;br&gt;进行处理" style="rounded=1;whiteSpace=wrap;html=1;" parent="1" vertex="1">
          <mxGeometry x="1310" y="-1245" width="120" height="60" as="geometry"/>
        </mxCell>
        <mxCell id="e0Hb0du3VfullZevtZFt-156" value="响应请求" style="rounded=0;whiteSpace=wrap;html=1;fillColor=none;" parent="1" vertex="1">
          <mxGeometry x="1310" y="-1045" width="120" height="60" as="geometry"/>
        </mxCell>
        <mxCell id="e0Hb0du3VfullZevtZFt-157" value="" style="endArrow=classic;html=1;exitX=0.5;exitY=1;exitDx=0;exitDy=0;entryX=0.5;entryY=0;entryDx=0;entryDy=0;" parent="1" source="e0Hb0du3VfullZevtZFt-150" target="e0Hb0du3VfullZevtZFt-156" edge="1">
          <mxGeometry width="50" height="50" relative="1" as="geometry">
            <mxPoint x="1500" y="-1025" as="sourcePoint"/>
            <mxPoint x="1550" y="-1075" as="targetPoint"/>
          </mxGeometry>
        </mxCell>
        <mxCell id="e0Hb0du3VfullZevtZFt-227" value="从队列取出请求&lt;br&gt;组成batch" style="rounded=1;whiteSpace=wrap;html=1;" parent="1" vertex="1">
          <mxGeometry x="1310" y="-1362.5" width="120" height="60" as="geometry"/>
        </mxCell>
        <mxCell id="e0Hb0du3VfullZevtZFt-229" value="获取队列超时请求" style="rounded=1;whiteSpace=wrap;html=1;" parent="1" vertex="1">
          <mxGeometry x="1540" y="-1480" width="120" height="60" as="geometry"/>
        </mxCell>
        <mxCell id="e0Hb0du3VfullZevtZFt-232" value="超时错误返回客户端" style="rounded=1;whiteSpace=wrap;html=1;" parent="1" vertex="1">
          <mxGeometry x="1540" y="-1362.5" width="120" height="60" as="geometry"/>
        </mxCell>
        <mxCell id="e0Hb0du3VfullZevtZFt-233" value="" style="endArrow=classic;html=1;exitX=0.5;exitY=1;exitDx=0;exitDy=0;entryX=0.5;entryY=0;entryDx=0;entryDy=0;" parent="1" source="oY_ch-bbe2DbD_rM6Vxi-12" target="e0Hb0du3VfullZevtZFt-227" edge="1">
          <mxGeometry width="50" height="50" relative="1" as="geometry">
            <mxPoint x="1450" y="-1350" as="sourcePoint"/>
            <mxPoint x="1500" y="-1400" as="targetPoint"/>
          </mxGeometry>
        </mxCell>
        <mxCell id="e0Hb0du3VfullZevtZFt-234" value="有合适处理器" style="text;html=1;resizable=0;points=[];align=center;verticalAlign=middle;labelBackgroundColor=#ffffff;" parent="e0Hb0du3VfullZevtZFt-233" vertex="1" connectable="0">
          <mxGeometry x="-0.4435" relative="1" as="geometry">
            <mxPoint y="13" as="offset"/>
          </mxGeometry>
        </mxCell>
        <mxCell id="e0Hb0du3VfullZevtZFt-235" value="" style="endArrow=classic;html=1;exitX=0.5;exitY=1;exitDx=0;exitDy=0;entryX=0.5;entryY=0;entryDx=0;entryDy=0;" parent="1" source="e0Hb0du3VfullZevtZFt-229" target="e0Hb0du3VfullZevtZFt-232" edge="1">
          <mxGeometry width="50" height="50" relative="1" as="geometry">
            <mxPoint x="1670" y="-1360" as="sourcePoint"/>
            <mxPoint x="1720" y="-1410" as="targetPoint"/>
          </mxGeometry>
        </mxCell>
        <mxCell id="e0Hb0du3VfullZevtZFt-267" value="有超时请求" style="text;html=1;resizable=0;points=[];align=center;verticalAlign=middle;labelBackgroundColor=#ffffff;" parent="e0Hb0du3VfullZevtZFt-235" vertex="1" connectable="0">
          <mxGeometry x="-0.4783" y="2" relative="1" as="geometry">
            <mxPoint x="-2" y="14.5" as="offset"/>
          </mxGeometry>
        </mxCell>
        <mxCell id="e0Hb0du3VfullZevtZFt-236" value="" style="endArrow=classic;html=1;exitX=0.5;exitY=1;exitDx=0;exitDy=0;entryX=0.5;entryY=0;entryDx=0;entryDy=0;" parent="1" source="e0Hb0du3VfullZevtZFt-227" target="e0Hb0du3VfullZevtZFt-152" edge="1">
          <mxGeometry width="50" height="50" relative="1" as="geometry">
            <mxPoint x="1550" y="-1190" as="sourcePoint"/>
            <mxPoint x="1600" y="-1240" as="targetPoint"/>
          </mxGeometry>
        </mxCell>
        <mxCell id="e0Hb0du3VfullZevtZFt-3" value="batch数据到指定的atlas芯片接口处理" style="rounded=1;whiteSpace=wrap;html=1;" parent="1" vertex="1">
          <mxGeometry x="943" y="-1075" width="120" height="60" as="geometry"/>
        </mxCell>
        <mxCell id="e0Hb0du3VfullZevtZFt-295" style="edgeStyle=orthogonalEdgeStyle;rounded=0;orthogonalLoop=1;jettySize=auto;html=1;exitX=1;exitY=0.75;exitDx=0;exitDy=0;entryX=0.25;entryY=1;entryDx=0;entryDy=0;" parent="1" source="e0Hb0du3VfullZevtZFt-5" target="e0Hb0du3VfullZevtZFt-243" edge="1">
          <mxGeometry relative="1" as="geometry"/>
        </mxCell>
        <mxCell id="e0Hb0du3VfullZevtZFt-5" value="atlas线程调用&lt;br&gt;回调函数" style="rounded=1;whiteSpace=wrap;html=1;" parent="1" vertex="1">
          <mxGeometry x="941.5" y="-945" width="120" height="60" as="geometry"/>
        </mxCell>
        <mxCell id="e0Hb0du3VfullZevtZFt-6" value="" style="endArrow=classic;html=1;exitX=0.5;exitY=1;exitDx=0;exitDy=0;entryX=0.5;entryY=0;entryDx=0;entryDy=0;dashed=1;" parent="1" source="e0Hb0du3VfullZevtZFt-3" target="e0Hb0du3VfullZevtZFt-5" edge="1">
          <mxGeometry width="50" height="50" relative="1" as="geometry">
            <mxPoint x="893" y="-835" as="sourcePoint"/>
            <mxPoint x="943" y="-885" as="targetPoint"/>
          </mxGeometry>
        </mxCell>
        <mxCell id="e0Hb0du3VfullZevtZFt-286" value="正常返回" style="text;html=1;resizable=0;points=[];align=center;verticalAlign=middle;labelBackgroundColor=#ffffff;" parent="e0Hb0du3VfullZevtZFt-6" vertex="1" connectable="0">
          <mxGeometry x="-0.6927" y="1" relative="1" as="geometry">
            <mxPoint x="-1" y="19" as="offset"/>
          </mxGeometry>
        </mxCell>
        <mxCell id="e0Hb0du3VfullZevtZFt-12" value="" style="endArrow=classic;html=1;exitX=0.25;exitY=1;exitDx=0;exitDy=0;entryX=0;entryY=0.5;entryDx=0;entryDy=0;" parent="1" source="e0Hb0du3VfullZevtZFt-3" target="e0Hb0du3VfullZevtZFt-283" edge="1">
          <mxGeometry width="50" height="50" relative="1" as="geometry">
            <mxPoint x="1153" y="-1045" as="sourcePoint"/>
            <mxPoint x="1146" y="-990" as="targetPoint"/>
            <Array as="points">
              <mxPoint x="973" y="-990"/>
              <mxPoint x="930" y="-990"/>
              <mxPoint x="930" y="-820"/>
            </Array>
          </mxGeometry>
        </mxCell>
        <mxCell id="e0Hb0du3VfullZevtZFt-13" value="超时异常" style="text;html=1;resizable=0;points=[];align=center;verticalAlign=middle;labelBackgroundColor=#ffffff;" parent="e0Hb0du3VfullZevtZFt-12" vertex="1" connectable="0">
          <mxGeometry x="-0.0591" y="1" relative="1" as="geometry">
            <mxPoint x="2" y="75" as="offset"/>
          </mxGeometry>
        </mxCell>
        <mxCell id="e0Hb0du3VfullZevtZFt-293" style="edgeStyle=orthogonalEdgeStyle;rounded=0;orthogonalLoop=1;jettySize=auto;html=1;exitX=0.5;exitY=0;exitDx=0;exitDy=0;entryX=0.75;entryY=1;entryDx=0;entryDy=0;" parent="1" source="e0Hb0du3VfullZevtZFt-243" target="e0Hb0du3VfullZevtZFt-289" edge="1">
          <mxGeometry relative="1" as="geometry"/>
        </mxCell>
        <mxCell id="e0Hb0du3VfullZevtZFt-294" value="响应请求" style="text;html=1;resizable=0;points=[];align=center;verticalAlign=middle;labelBackgroundColor=#ffffff;" parent="e0Hb0du3VfullZevtZFt-293" vertex="1" connectable="0">
          <mxGeometry x="-0.2235" relative="1" as="geometry">
            <mxPoint y="-9.5" as="offset"/>
          </mxGeometry>
        </mxCell>
        <mxCell id="e0Hb0du3VfullZevtZFt-243" value="归还连接池" style="rounded=1;whiteSpace=wrap;html=1;" parent="1" vertex="1">
          <mxGeometry x="1070" y="-1005" width="120" height="60" as="geometry"/>
        </mxCell>
        <mxCell id="e0Hb0du3VfullZevtZFt-246" value="归还连接池" style="rounded=1;whiteSpace=wrap;html=1;" parent="1" vertex="1">
          <mxGeometry x="70" y="-1480" width="120" height="60" as="geometry"/>
        </mxCell>
        <mxCell id="e0Hb0du3VfullZevtZFt-247" value="" style="endArrow=classic;html=1;exitX=0;exitY=0.5;exitDx=0;exitDy=0;" parent="1" source="e0Hb0du3VfullZevtZFt-95" target="e0Hb0du3VfullZevtZFt-246" edge="1">
          <mxGeometry width="50" height="50" relative="1" as="geometry">
            <mxPoint x="300" y="-1284" as="sourcePoint"/>
            <mxPoint x="130" y="-1820" as="targetPoint"/>
            <Array as="points">
              <mxPoint x="130" y="-1284"/>
            </Array>
          </mxGeometry>
        </mxCell>
        <mxCell id="e0Hb0du3VfullZevtZFt-248" value="成功" style="text;html=1;resizable=0;points=[];align=center;verticalAlign=middle;labelBackgroundColor=#ffffff;" parent="e0Hb0du3VfullZevtZFt-247" vertex="1" connectable="0">
          <mxGeometry x="-0.5615" y="-1" relative="1" as="geometry">
            <mxPoint x="-23" y="1" as="offset"/>
          </mxGeometry>
        </mxCell>
        <mxCell id="e0Hb0du3VfullZevtZFt-266" value="" style="endArrow=classic;html=1;exitX=1;exitY=0.25;exitDx=0;exitDy=0;entryX=0;entryY=0.25;entryDx=0;entryDy=0;dashed=1;dashPattern=1 4;shape=flexArrow;" parent="1" source="oY_ch-bbe2DbD_rM6Vxi-12" target="e0Hb0du3VfullZevtZFt-261" edge="1">
          <mxGeometry width="50" height="50" relative="1" as="geometry">
            <mxPoint x="1560" y="-1570" as="sourcePoint"/>
            <mxPoint x="1610" y="-1620" as="targetPoint"/>
          </mxGeometry>
        </mxCell>
        <mxCell id="e0Hb0du3VfullZevtZFt-268" value="" style="endArrow=classic;html=1;exitX=0.5;exitY=0;exitDx=0;exitDy=0;entryX=1;entryY=0.5;entryDx=0;entryDy=0;" parent="1" source="e0Hb0du3VfullZevtZFt-229" target="aE2p1h7sIhhoh9OwQIMp-5" edge="1">
          <mxGeometry width="50" height="50" relative="1" as="geometry">
            <mxPoint x="1660" y="-1490" as="sourcePoint"/>
            <mxPoint x="1600" y="-1670" as="targetPoint"/>
            <Array as="points">
              <mxPoint x="1600" y="-1661"/>
            </Array>
          </mxGeometry>
        </mxCell>
        <mxCell id="e0Hb0du3VfullZevtZFt-269" value="无超时请求" style="text;html=1;resizable=0;points=[];align=center;verticalAlign=middle;labelBackgroundColor=#ffffff;" parent="e0Hb0du3VfullZevtZFt-268" vertex="1" connectable="0">
          <mxGeometry x="-0.4017" y="-1" relative="1" as="geometry">
            <mxPoint as="offset"/>
          </mxGeometry>
        </mxCell>
        <mxCell id="e0Hb0du3VfullZevtZFt-271" value="异步函数" style="text;html=1;strokeColor=none;fillColor=none;align=center;verticalAlign=middle;whiteSpace=wrap;rounded=0;dashed=1;" parent="1" vertex="1">
          <mxGeometry x="1620" y="-1704" width="50" height="20" as="geometry"/>
        </mxCell>
        <mxCell id="e0Hb0du3VfullZevtZFt-281" value="" style="group" parent="1" vertex="1" connectable="0">
          <mxGeometry x="1750" y="-1770" width="360" height="430" as="geometry"/>
        </mxCell>
        <mxCell id="e0Hb0du3VfullZevtZFt-261" value="" style="rounded=0;whiteSpace=wrap;html=1;strokeColor=#000000;fillColor=#ffffff;dashed=1;" parent="e0Hb0du3VfullZevtZFt-281" vertex="1">
          <mxGeometry y="76" width="360" height="354" as="geometry"/>
        </mxCell>
        <mxCell id="e0Hb0du3VfullZevtZFt-238" value="" style="endArrow=classic;html=1;entryX=0.25;entryY=0;entryDx=0;entryDy=0;" parent="e0Hb0du3VfullZevtZFt-281" target="e0Hb0du3VfullZevtZFt-261" edge="1">
          <mxGeometry width="50" height="50" relative="1" as="geometry">
            <mxPoint x="90" as="sourcePoint"/>
            <mxPoint x="180" y="240.5" as="targetPoint"/>
          </mxGeometry>
        </mxCell>
        <mxCell id="e0Hb0du3VfullZevtZFt-239" value="请求进入" style="text;html=1;resizable=0;points=[];align=center;verticalAlign=middle;labelBackgroundColor=#ffffff;" parent="e0Hb0du3VfullZevtZFt-238" vertex="1" connectable="0">
          <mxGeometry x="-0.55" y="1" relative="1" as="geometry">
            <mxPoint x="-1" y="23" as="offset"/>
          </mxGeometry>
        </mxCell>
        <mxCell id="e0Hb0du3VfullZevtZFt-241" value="" style="endArrow=classic;html=1;exitX=0.75;exitY=0;exitDx=0;exitDy=0;" parent="e0Hb0du3VfullZevtZFt-281" source="e0Hb0du3VfullZevtZFt-261" edge="1">
          <mxGeometry width="50" height="50" relative="1" as="geometry">
            <mxPoint x="239.5" y="80.5" as="sourcePoint"/>
            <mxPoint x="270" as="targetPoint"/>
          </mxGeometry>
        </mxCell>
        <mxCell id="e0Hb0du3VfullZevtZFt-242" value="响应返回" style="text;html=1;resizable=0;points=[];align=center;verticalAlign=middle;labelBackgroundColor=#ffffff;" parent="e0Hb0du3VfullZevtZFt-241" vertex="1" connectable="0">
          <mxGeometry x="-0.55" y="1" relative="1" as="geometry">
            <mxPoint x="1" y="-19.5" as="offset"/>
          </mxGeometry>
        </mxCell>
        <mxCell id="e0Hb0du3VfullZevtZFt-264" value="处理器超时判断" style="text;html=1;strokeColor=none;fillColor=none;align=center;verticalAlign=middle;whiteSpace=wrap;rounded=0;dashed=1;" parent="e0Hb0du3VfullZevtZFt-281" vertex="1">
          <mxGeometry x="125" y="80" width="110" height="20" as="geometry"/>
        </mxCell>
        <mxCell id="e0Hb0du3VfullZevtZFt-265" value="" style="group" parent="e0Hb0du3VfullZevtZFt-281" vertex="1" connectable="0">
          <mxGeometry x="50" y="110" width="260" height="299.5" as="geometry"/>
        </mxCell>
        <mxCell id="e0Hb0du3VfullZevtZFt-237" value="记录请求的处理时长&lt;br&gt;nRequestElapse" style="rounded=1;whiteSpace=wrap;html=1;strokeColor=#000000;fillColor=#ffffff;" parent="e0Hb0du3VfullZevtZFt-265" vertex="1">
          <mxGeometry width="120" height="60" as="geometry"/>
        </mxCell>
        <mxCell id="e0Hb0du3VfullZevtZFt-250" value="记录上次响应时间&lt;br&gt;nLastResponseTime" style="rounded=1;whiteSpace=wrap;html=1;strokeColor=#000000;fillColor=#ffffff;" parent="e0Hb0du3VfullZevtZFt-265" vertex="1">
          <mxGeometry x="140" width="120" height="60" as="geometry"/>
        </mxCell>
        <mxCell id="e0Hb0du3VfullZevtZFt-252" value="nRequestCount != nResponseCount&lt;br&gt;&amp;amp;&amp;amp;&amp;nbsp;&lt;span style=&quot;white-space: normal&quot;&gt;&lt;br&gt;(nLastResponseTime - now() &amp;gt; timeout&lt;br&gt;&lt;/span&gt;|| &lt;br&gt;nRequestElapse &amp;gt; timeout)&lt;span style=&quot;white-space: normal&quot;&gt;&lt;br&gt;&lt;/span&gt;" style="rounded=0;whiteSpace=wrap;html=1;strokeColor=#000000;fillColor=#ffffff;" parent="e0Hb0du3VfullZevtZFt-265" vertex="1">
          <mxGeometry x="20" y="115.5" width="220" height="83" as="geometry"/>
        </mxCell>
        <mxCell id="e0Hb0du3VfullZevtZFt-253" value="" style="endArrow=classic;html=1;exitX=0.25;exitY=1;exitDx=0;exitDy=0;entryX=0.5;entryY=0;entryDx=0;entryDy=0;" parent="e0Hb0du3VfullZevtZFt-265" source="e0Hb0du3VfullZevtZFt-252" target="e0Hb0du3VfullZevtZFt-257" edge="1">
          <mxGeometry width="50" height="50" relative="1" as="geometry">
            <mxPoint x="50" y="295" as="sourcePoint"/>
            <mxPoint x="40" y="225" as="targetPoint"/>
          </mxGeometry>
        </mxCell>
        <mxCell id="e0Hb0du3VfullZevtZFt-254" value="是" style="text;html=1;resizable=0;points=[];align=center;verticalAlign=middle;labelBackgroundColor=#ffffff;" parent="e0Hb0du3VfullZevtZFt-253" vertex="1" connectable="0">
          <mxGeometry x="-0.5919" y="1" relative="1" as="geometry">
            <mxPoint x="-9" y="9.5" as="offset"/>
          </mxGeometry>
        </mxCell>
        <mxCell id="e0Hb0du3VfullZevtZFt-255" value="" style="endArrow=classic;html=1;exitX=0.75;exitY=1;exitDx=0;exitDy=0;entryX=0.5;entryY=0;entryDx=0;entryDy=0;" parent="e0Hb0du3VfullZevtZFt-265" source="e0Hb0du3VfullZevtZFt-252" target="e0Hb0du3VfullZevtZFt-258" edge="1">
          <mxGeometry width="50" height="50" relative="1" as="geometry">
            <mxPoint x="160" y="245" as="sourcePoint"/>
            <mxPoint x="220" y="225" as="targetPoint"/>
          </mxGeometry>
        </mxCell>
        <mxCell id="e0Hb0du3VfullZevtZFt-256" value="否" style="text;html=1;resizable=0;points=[];align=center;verticalAlign=middle;labelBackgroundColor=#ffffff;" parent="e0Hb0du3VfullZevtZFt-255" vertex="1" connectable="0">
          <mxGeometry x="-0.5758" y="-4" relative="1" as="geometry">
            <mxPoint x="11" y="7" as="offset"/>
          </mxGeometry>
        </mxCell>
        <mxCell id="e0Hb0du3VfullZevtZFt-257" value="已超时&lt;br&gt;不允许输入数据" style="rounded=1;whiteSpace=wrap;html=1;strokeColor=#000000;fillColor=#ffffff;" parent="e0Hb0du3VfullZevtZFt-265" vertex="1">
          <mxGeometry y="239.5" width="120" height="60" as="geometry"/>
        </mxCell>
        <mxCell id="e0Hb0du3VfullZevtZFt-258" value="未超时&lt;br&gt;可以继续输入数据" style="rounded=1;whiteSpace=wrap;html=1;strokeColor=#000000;fillColor=#ffffff;" parent="e0Hb0du3VfullZevtZFt-265" vertex="1">
          <mxGeometry x="140" y="239.5" width="120" height="60" as="geometry"/>
        </mxCell>
        <mxCell id="e0Hb0du3VfullZevtZFt-259" value="" style="endArrow=classic;html=1;exitX=0.5;exitY=1;exitDx=0;exitDy=0;entryX=0.25;entryY=0;entryDx=0;entryDy=0;" parent="e0Hb0du3VfullZevtZFt-265" source="e0Hb0du3VfullZevtZFt-237" target="e0Hb0du3VfullZevtZFt-252" edge="1">
          <mxGeometry width="50" height="50" relative="1" as="geometry">
            <mxPoint x="-20" y="125" as="sourcePoint"/>
            <mxPoint x="30" y="75" as="targetPoint"/>
          </mxGeometry>
        </mxCell>
        <mxCell id="e0Hb0du3VfullZevtZFt-260" value="" style="endArrow=classic;html=1;exitX=0.5;exitY=1;exitDx=0;exitDy=0;entryX=0.75;entryY=0;entryDx=0;entryDy=0;" parent="e0Hb0du3VfullZevtZFt-265" source="e0Hb0du3VfullZevtZFt-250" target="e0Hb0du3VfullZevtZFt-252" edge="1">
          <mxGeometry width="50" height="50" relative="1" as="geometry">
            <mxPoint x="260" y="155" as="sourcePoint"/>
            <mxPoint x="310" y="105" as="targetPoint"/>
          </mxGeometry>
        </mxCell>
        <mxCell id="e0Hb0du3VfullZevtZFt-282" value="" style="group" parent="1" vertex="1" connectable="0">
          <mxGeometry x="1750" y="-1305" width="360" height="245" as="geometry"/>
        </mxCell>
        <mxCell id="e0Hb0du3VfullZevtZFt-273" value="" style="rounded=0;whiteSpace=wrap;html=1;strokeColor=#000000;fillColor=#ffffff;dashed=1;" parent="e0Hb0du3VfullZevtZFt-282" vertex="1">
          <mxGeometry width="360" height="245" as="geometry"/>
        </mxCell>
        <mxCell id="e0Hb0du3VfullZevtZFt-272" value="&lt;span style=&quot;white-space: normal&quot;&gt;nRequestCount&amp;nbsp; -&amp;nbsp;&amp;nbsp;&lt;/span&gt;nResponseCount &amp;gt;=&amp;nbsp; n * uiBatchSize" style="rounded=0;whiteSpace=wrap;html=1;strokeColor=#000000;fillColor=#ffffff;" parent="e0Hb0du3VfullZevtZFt-282" vertex="1">
          <mxGeometry x="25" y="45" width="310" height="60" as="geometry"/>
        </mxCell>
        <mxCell id="e0Hb0du3VfullZevtZFt-274" value="atlas队列大小上限判断" style="text;html=1;strokeColor=none;fillColor=none;align=center;verticalAlign=middle;whiteSpace=wrap;rounded=0;dashed=1;" parent="e0Hb0du3VfullZevtZFt-282" vertex="1">
          <mxGeometry x="110" y="11" width="140" height="20" as="geometry"/>
        </mxCell>
        <mxCell id="e0Hb0du3VfullZevtZFt-275" value="" style="endArrow=classic;html=1;exitX=0.25;exitY=1;exitDx=0;exitDy=0;entryX=0.5;entryY=0;entryDx=0;entryDy=0;" parent="e0Hb0du3VfullZevtZFt-282" source="e0Hb0du3VfullZevtZFt-272" target="e0Hb0du3VfullZevtZFt-279" edge="1">
          <mxGeometry width="50" height="50" relative="1" as="geometry">
            <mxPoint x="70" y="195" as="sourcePoint"/>
            <mxPoint x="120" y="145" as="targetPoint"/>
          </mxGeometry>
        </mxCell>
        <mxCell id="e0Hb0du3VfullZevtZFt-276" value="是" style="text;html=1;resizable=0;points=[];align=center;verticalAlign=middle;labelBackgroundColor=#ffffff;" parent="e0Hb0du3VfullZevtZFt-275" vertex="1" connectable="0">
          <mxGeometry x="-0.4866" y="2" relative="1" as="geometry">
            <mxPoint x="-8" y="9.5" as="offset"/>
          </mxGeometry>
        </mxCell>
        <mxCell id="e0Hb0du3VfullZevtZFt-277" value="" style="endArrow=classic;html=1;exitX=0.75;exitY=1;exitDx=0;exitDy=0;entryX=0.5;entryY=0;entryDx=0;entryDy=0;" parent="e0Hb0du3VfullZevtZFt-282" source="e0Hb0du3VfullZevtZFt-272" target="e0Hb0du3VfullZevtZFt-280" edge="1">
          <mxGeometry width="50" height="50" relative="1" as="geometry">
            <mxPoint x="240.5" y="122.5" as="sourcePoint"/>
            <mxPoint x="215.03999999999996" y="181.40499999999997" as="targetPoint"/>
          </mxGeometry>
        </mxCell>
        <mxCell id="e0Hb0du3VfullZevtZFt-278" value="否" style="text;html=1;resizable=0;points=[];align=center;verticalAlign=middle;labelBackgroundColor=#ffffff;" parent="e0Hb0du3VfullZevtZFt-277" vertex="1" connectable="0">
          <mxGeometry x="-0.4866" y="2" relative="1" as="geometry">
            <mxPoint x="5" y="9.5" as="offset"/>
          </mxGeometry>
        </mxCell>
        <mxCell id="e0Hb0du3VfullZevtZFt-279" value="atlas队列已满&lt;br&gt;不允许输入数据" style="rounded=1;whiteSpace=wrap;html=1;strokeColor=#000000;fillColor=#ffffff;" parent="e0Hb0du3VfullZevtZFt-282" vertex="1">
          <mxGeometry x="20" y="160" width="120" height="60" as="geometry"/>
        </mxCell>
        <mxCell id="e0Hb0du3VfullZevtZFt-280" value="atlas队列未满&lt;br&gt;允许输入数据" style="rounded=1;whiteSpace=wrap;html=1;strokeColor=#000000;fillColor=#ffffff;" parent="e0Hb0du3VfullZevtZFt-282" vertex="1">
          <mxGeometry x="210" y="160" width="120" height="60" as="geometry"/>
        </mxCell>
        <mxCell id="e0Hb0du3VfullZevtZFt-283" value="atlas线程调用&lt;br&gt;异常回调函数" style="rounded=1;whiteSpace=wrap;html=1;" parent="1" vertex="1">
          <mxGeometry x="941.5" y="-850" width="120" height="60" as="geometry"/>
        </mxCell>
        <mxCell id="e0Hb0du3VfullZevtZFt-289" value="Client完成回调" style="rounded=1;whiteSpace=wrap;html=1;" parent="1" vertex="1">
          <mxGeometry x="1040" y="-1150" width="120" height="60" as="geometry"/>
        </mxCell>
        <mxCell id="e0Hb0du3VfullZevtZFt-292" value="" style="endArrow=classic;html=1;exitX=1;exitY=0.5;exitDx=0;exitDy=0;entryX=0;entryY=0.5;entryDx=0;entryDy=0;" parent="1" source="e0Hb0du3VfullZevtZFt-289" target="e0Hb0du3VfullZevtZFt-150" edge="1">
          <mxGeometry width="50" height="50" relative="1" as="geometry">
            <mxPoint x="1240" y="-1080" as="sourcePoint"/>
            <mxPoint x="1290" y="-1130" as="targetPoint"/>
          </mxGeometry>
        </mxCell>
      </root>
    </mxGraphModel>
  </diagram>
</mxfile>
